# xmcd
#
# Track frame offsets: 
#        150
#        14475
#        42188
#        79176
#        134693
#        179974
#        209269
#        225123
#        234324
#        255472
#        290727
#
# Disc length: 4059 seconds
#
# Revision: 1
# Processed by: cddbd v1.5.2PL0 Copyright (c) Steve Scherf et al.
# Submitted via: ExactAudioCopy v0.95b4
#
DISCID=990fd90b
DTITLE=Jane Bunnett - Cuban Odyssey
DYEAR=2002
DGENRE=Latin
TTITLE0=Arrival
TTITLE1=Quitate El Chaqueton
TTITLE2=A La Rumba
TTITLE3=Suite Matanzas
TTITLE4=Pensando En Jane
TTITLE5=El Diablo
TTITLE6=Nan Fonn Bwaa
TTITLE7=Alabans
TTITLE8=Prizon
TTITLE9=Ron Con Ron
TTITLE10=Movin On
EXTD=YEAR: 2002
EXTT0=
EXTT1=
EXTT2=
EXTT3=
EXTT4=
EXTT5=
EXTT6=
EXTT7=
EXTT8=
EXTT9=
EXTT10=
PLAYORDER=
